# xmcd CD database file
#
# Track frame offsets:
#	150
#	34950
#	52191
#	66585
#	84102
#	100581
#	117268
#	127195
#	146476
#	170642
#	201066
#	215191
#	231462
#	261130
#	286231
#	308672
#	323904
#
# Disc length: 4670 seconds
#
# Revision: 0
# Processed by: cddbd v1.5.2PL0 Copyright (c) Steve Scherf et al.
# Submitted via: CDex 1.70beta2
#
DISCID=09123c11
DTITLE=Art Pepper and others - Pepper Pot
DYEAR=2009
DGENRE=Jazz
TTITLE0=Art Pepper: Tin Tin Deo
TTITLE1=Quincy Jones All Stars: Dancin' Pants
TTITLE2=Marty Paich Quartet: What's Right For You
TTITLE3=Art Pepper with Warne Marsh: Avalon
TTITLE4=Art Pepper: Patricia
TTITLE5=Barney Kessel Septet: I Wanna Be Loved By You
TTITLE6=Stan Kenton Orchestra: Pepper Pot
TTITLE7=Art Pepper: Mambo de la pinta
TTITLE8=Stan Kenton Orchestra: Art Pepper
TTITLE9=John Graas Nonetet: Jazz Overture
TTITLE10=Stan Kenton Orchestra: Street Of Dreams
TTITLE11=Shorty Rogers and his Orchestra: Infinity Promenade
TTITLE12=Art Pepper: The Man I Love
TTITLE13=Chet Baker and Art Pepper: Tynan Time
TTITLE14=Art Pepper and Eleven: Walkin'
TTITLE15=Joe Morello: Straight Life
TTITLE16=Art Pepper: A Night In Tunisia
EXTD=YEAR: 2009
EXTT0=
EXTT1=
EXTT2=
EXTT3=
EXTT4=
EXTT5=
EXTT6=
EXTT7=
EXTT8=
EXTT9=
EXTT10=
EXTT11=
EXTT12=
EXTT13=
EXTT14=
EXTT15=
EXTT16=
PLAYORDER=
